<svg id="visual" viewBox="0 0 960 300" width="960" height="300" xmlns="http://www.w3.org/2000/svg" xmlns:xlink="http://www.w3.org/1999/xlink" version="1.1"><rect x="0" y="0" width="960" height="300" fill="#ff0066"></rect><path d="M0 198L137 200L274 180L411 206L549 191L686 200L823 205L960 215L960 301L823 301L686 301L549 301L411 301L274 301L137 301L0 301Z" fill="#f5730a"></path><path d="M0 199L137 207L274 233L411 218L549 214L686 199L823 219L960 204L960 301L823 301L686 301L549 301L411 301L274 301L137 301L0 301Z" fill="#da4158"></path><path d="M0 245L137 247L274 234L411 227L549 250L686 254L823 222L960 220L960 301L823 301L686 301L549 301L411 301L274 301L137 301L0 301Z" fill="#943c73"></path><path d="M0 265L137 240L274 254L411 244L549 262L686 250L823 265L960 256L960 301L823 301L686 301L549 301L411 301L274 301L137 301L0 301Z" fill="#473a61"></path><path d="M0 282L137 282L274 286L411 264L549 272L686 281L823 273L960 282L960 301L823 301L686 301L549 301L411 301L274 301L137 301L0 301Z" fill="#202731"></path></svg>